<svg id="Layer_1" data-name="Layer 1" xmlns="http://www.w3.org/2000/svg" viewBox="0 0 417.05 102.2"><defs><style>.cls-1{fill:#ea0029;}.cls-2{fill:#ffffff;}</style></defs><title>cemit-logo</title><polygon class="cls-1" points="232.73 47.6 184.55 1.4 184.55 33.24 232.73 81.42 280.9 33.24 280.9 1.4 232.73 47.6"/><polygon class="cls-1" points="184.55 99.39 220.89 99.39 184.55 63.04 184.55 99.39"/><polygon class="cls-1" points="244.57 99.39 280.9 99.39 280.9 63.04 244.57 99.39"/><path class="cls-2" d="M53.06,0A66.89,66.89,0,0,1,81.48,6.16v24.5c-6-5-15-8-23.94-8C42,22.68,26.6,31.22,26.6,52.5c0,19,15.4,26.88,30.66,26.88,10.08,0,19.32-3.08,24.92-8.54V96a66.15,66.15,0,0,1-28.56,6.16C26.74,102.2,0,87.5,0,52.5,0,15.54,26.6,0,53.06,0Z"/><path class="cls-2" d="M168,1.47v22.4H123.38v15h40.46V61.11H123.38v16h45.5v22.4H97.48v-98Z"/><path class="cls-2" d="M323.3,1.47v98H297.4v-98Z"/><path class="cls-2" d="M417.05,1.47v23.1H389.47v74.9h-25.9V24.57H335.85V1.47Z"/></svg>